<?xml version="1.0" encoding="UTF-8"?>
<svg id="Layer_2" data-name="Layer 2" xmlns="http://www.w3.org/2000/svg" viewBox="0 0 449.6 451">
  <defs>
    <style>
      .cls-1 {
        fill: #c41220;
        stroke-width: 0px;
      }
    </style>
  </defs>
  <g id="Layer_1-2" data-name="Layer 1">
    <g id="Layer_1-2" data-name="Layer 1-2">
      <path class="cls-1" d="m247,20.2l23.3-15.4.7.3c4.6,7.5,9.9,15.2,14.9,22.8,8.6-3.2,17.1-6.9,25.7-10.4,3.7,8.8,6.9,17.6,11,26.2l26.9-5.3,5.5,26.9.7.5h26.9l.5,30c10.2,2.1,19.7,4.5,29.7,6.2l-5.5,27.6,25.2,10.8c-2.8,8.6-7.3,17.1-10.3,25.9l22.8,15.6-15.1,23.1,19.7,19.9c-7.4,7.5-13.9,14.5-21.2,21.6l16.4,25.2-23.3,15.6,10.5,25.7-25.9,10.8c1.5,8.8,3.8,17.9,5.3,27.1-8.9,2.1-18.1,3.5-27.1,5.3v27.8h-30c-2.3,9.5-4.1,19.9-6.3,29.8l-27.3-5.3-10.8,25.7-25.7-10.8c-4.9,7.8-10.5,15.2-15.4,23l-23-15.1-19.7,19.7-21.6-21.1-25.2,16.3-15.1-23.1c-8.7,2.8-17.4,6.9-26.2,10.4l-10.5-25.7c-8.8,1.7-19,3.1-27.4,5.3l-5.5-27.6-28.3-.5c.5-10.1-.1-19.2.2-29.1l-1.2-.9-28.5-6c2-9,3.5-18.1,5.5-27.1-8.5-3.6-16.8-7.4-25.5-10.6,3-8.5,6.9-17.1,10.4-25.7l-.5-.9c-7.5-5.1-14.9-10.1-22.3-15.2l15.3-23.2L0,226.6l20.7-21.6c-5.1-8.6-10.5-17.1-16.1-25.5,7.5-5.4,15.6-10.3,23.3-15.8-3.8-8.5-6.9-17.3-10.8-25.7l25.7-10.5c-1.3-9.1-3.1-18.5-5.3-27.4l27.3-5.5v-28.1l30.3-.2c2.8-9.6,4.1-19.7,6.2-29.6,9.4,1.7,18.6,4.4,27.9,5.6l10.5-25.7c8.7,3.4,17.1,7.4,25.9,10.5l15.4-22.8,23,15.2c6.2-6.1,13.4-12.5,19.7-19.5l21.1,20.9,2.2-.7h0Z"/>
    </g>
  </g>
</svg>